<svg xmlns="http://www.w3.org/2000/svg" xmlns:xlink="http://www.w3.org/1999/xlink" viewBox="0 0 512 512" class="logo rotate" aria-labelledby="title desc" role="img">
<path d="M256,0C114.6,0,0,114.6,0,256s114.6,256,256,256s256-114.6,256-256S397.4,0,256,0z M256,496.6
	C123.1,496.6,15.4,388.9,15.4,256C15.4,123.1,123.1,15.4,256,15.4c132.9,0,240.6,107.7,240.6,240.6
	C496.6,388.9,388.9,496.6,256,496.6z"/>
<g>
	<polygon points="301.8,416 256,356.5 209.4,416 	"/>
	<path d="M256,256l166.5,160.1c40-41.5,64.5-98,64.5-160.1c0-127.6-103.4-231-231-231S25,128.4,25,256c0,62.1,24.5,118.5,64.4,160
		L256,256z"/>
	<path d="M250.5,486.9c-0.4,0-0.7,0-1.1,0C249.8,486.9,250.2,486.9,250.5,486.9z"/>
	<path d="M267.3,486.7c0.3,0,0.6,0,0.8,0C267.9,486.7,267.6,486.7,267.3,486.7z"/>
	<path d="M261.4,486.9c0.4,0,0.9,0,1.3,0C262.3,486.9,261.9,486.9,261.4,486.9z"/>
</g>
</svg>
